<svg version="1.1" id="Layer_1" xmlns="http://www.w3.org/2000/svg" xmlns:xlink="http://www.w3.org/1999/xlink" x="0px" y="0px"
	 width="100%" viewBox="0 0 128 128" enable-background="new 0 0 128 128" xml:space="preserve">
<path fill="#000000" opacity="1.000000" stroke="none" 
	d="
M83.000000,129.000000 
	C55.333332,129.000000 28.166666,129.000000 1.000000,129.000000 
	C1.000000,86.333336 1.000000,43.666668 1.000000,1.000000 
	C43.666668,1.000000 86.333336,1.000000 129.000000,1.000000 
	C129.000000,43.666668 129.000000,86.333336 129.000000,129.000000 
	C113.833336,129.000000 98.666664,129.000000 83.000000,129.000000 
M95.499687,45.069576 
	C92.187592,47.960346 89.252625,47.090149 86.626457,44.090843 
	C82.630859,39.527531 78.447868,35.099781 74.786316,30.278868 
	C68.558487,22.079119 61.787205,21.923388 55.479485,29.974892 
	C51.842640,34.617149 48.013603,39.131638 43.992191,43.443539 
	C39.814800,47.922691 37.599091,47.940964 32.692219,44.156105 
	C27.913044,40.469742 23.199389,36.698547 18.444191,32.980942 
	C14.077329,29.566935 7.998873,30.181398 5.856455,34.988903 
	C4.630847,37.739120 4.793703,41.498699 5.384750,44.603298 
	C8.747669,62.267712 12.522150,79.853409 15.950635,97.505890 
	C17.193033,103.902695 19.235636,105.996422 25.647043,105.997826 
	C51.789433,106.003532 77.931824,106.002296 104.074211,105.998779 
	C110.800690,105.997879 112.805740,103.999863 114.050308,97.284584 
	C116.057785,86.452950 118.480209,75.698700 120.536339,64.875465 
	C122.172203,56.264503 123.532372,47.600971 124.995125,38.957420 
	C125.590950,35.436676 123.761581,32.828030 120.738510,32.120792 
	C118.005753,31.481478 114.293655,31.326923 112.123482,32.705757 
	C106.503685,36.276333 101.496063,40.810413 95.499687,45.069576 
z"/>
<path fill="#FFB743" opacity="1.000000" stroke="none" 
	d="
M95.871857,45.014702 
	C101.496063,40.810413 106.503685,36.276333 112.123482,32.705757 
	C114.293655,31.326923 118.005753,31.481478 120.738510,32.120792 
	C123.761581,32.828030 125.590950,35.436676 124.995125,38.957420 
	C123.532372,47.600971 122.172203,56.264503 120.536339,64.875465 
	C118.480209,75.698700 116.057785,86.452950 114.050308,97.284584 
	C112.805740,103.999863 110.800690,105.997879 104.074211,105.998779 
	C77.931824,106.002296 51.789433,106.003532 25.647043,105.997826 
	C19.235636,105.996422 17.193033,103.902695 15.950635,97.505890 
	C12.522150,79.853409 8.747669,62.267712 5.384750,44.603298 
	C4.793703,41.498699 4.630847,37.739120 5.856455,34.988903 
	C7.998873,30.181398 14.077329,29.566935 18.444191,32.980942 
	C23.199389,36.698547 27.913044,40.469742 32.692219,44.156105 
	C37.599091,47.940964 39.814800,47.922691 43.992191,43.443539 
	C48.013603,39.131638 51.842640,34.617149 55.479485,29.974892 
	C61.787205,21.923388 68.558487,22.079119 74.786316,30.278868 
	C78.447868,35.099781 82.630859,39.527531 86.626457,44.090843 
	C89.252625,47.090149 92.187592,47.960346 95.871857,45.014702 
z"/>
</svg>